name C:\Users\u0101727\Documents\MyRepositories\upper-imu-dc\Results\main_tracking\Case_48\ABD01_orientations_groundFrame.mot
datacolumns 13
datarows 40
range 2.81000000 3.20000000
endheader 
time	radius_imu_[0][0]	radius_imu_[0][1]	radius_imu_[0][2]	radius_imu_[1][0]	radius_imu_[1][1]	radius_imu_[1][2]	radius_imu_[2][0]	radius_imu_[2][1]	radius_imu_[2][2]	radius_imu_x	radius_imu_y	radius_imu_z	
          2.81000000	          0.54171868	         -0.03120339	          0.83998049	         -0.20814416	          0.96320830	          0.17001697	         -0.81438129	         -0.26693840	          0.51529312	         -0.31869548	          0.99724727	          0.05753715	
          2.82000000	          0.54323663	         -0.03067749	          0.83901898	         -0.20718927	          0.96352669	          0.16937803	         -0.81361328	         -0.26584808	          0.51706695	         -0.31655882	          0.99547771	          0.05641177	
          2.83000000	          0.54475451	         -0.03016603	          0.83805282	         -0.20621829	          0.96384674	          0.16874089	         -0.81284472	         -0.26474418	          0.51883907	         -0.31443792	          0.99370443	          0.05531897	
          2.84000000	          0.54627107	         -0.02967586	          0.83708259	         -0.20520913	          0.96417427	          0.16809872	         -0.81208197	         -0.26360446	          0.52061076	         -0.31232006	          0.99192853	          0.05427107	
          2.85000000	          0.54778991	         -0.02921113	          0.83610581	         -0.20415358	          0.96451080	          0.16745216	         -0.81132455	         -0.26242260	          0.52238573	         -0.31020423	          0.99014551	          0.05327497	
          2.86000000	          0.54931520	         -0.02877437	          0.83511966	         -0.20305027	          0.96485587	          0.16680450	         -0.81056980	         -0.26119952	          0.52416735	         -0.30809432	          0.98835029	          0.05233442	
          2.87000000	          0.55084937	         -0.02836697	          0.83412246	         -0.20190161	          0.96520814	          0.16615954	         -0.80981523	         -0.25993955	          0.52595696	         -0.30599620	          0.98653991	          0.05145133	
          2.88000000	          0.55239243	         -0.02798970	          0.83311415	         -0.20071233	          0.96556583	          0.16552098	         -0.80905943	         -0.25864882	          0.52775337	         -0.30391691	          0.98471438	          0.05062666	
          2.89000000	          0.55394217	         -0.02764285	          0.83209612	         -0.19948885	          0.96592687	          0.16489232	         -0.80830209	         -0.25733471	          0.52955318	         -0.30186427	          0.98287634	          0.04986069	
          2.90000000	          0.55549531	         -0.02732618	          0.83107054	         -0.19823894	          0.96628898	          0.16427701	         -0.80754337	         -0.25600565	          0.53135188	         -0.29984647	          0.98102978	          0.04915284	
          2.91000000	          0.55704895	         -0.02703883	          0.83003938	         -0.19697144	          0.96664963	          0.16367875	         -0.80678294	         -0.25467113	          0.53314529	         -0.29787177	          0.97917828	          0.04850134	
          2.92000000	          0.55860232	         -0.02677930	          0.82900320	         -0.19569601	          0.96700613	          0.16310189	         -0.80601893	         -0.25334171	          0.53493127	         -0.29594842	          0.97732292	          0.04790315	
          2.93000000	          0.56015850	         -0.02654550	          0.82796002	         -0.19442269	          0.96735552	          0.16255188	         -0.80524672	         -0.25202904	          0.53671136	         -0.29408452	          0.97546015	          0.04735384	
          2.94000000	          0.56172601	         -0.02633485	          0.82690408	         -0.19316166	          0.96769468	          0.16203575	         -0.80445787	         -0.25074586	          0.53849239	         -0.29228805	          0.97357980	          0.04684771	
          2.95000000	          0.56332013	         -0.02614430	          0.82582498	         -0.19192281	          0.96802028	          0.16156231	         -0.80363926	         -0.24950595	          0.54028762	         -0.29056683	          0.97166357	          0.04637781	
          2.96000000	          0.56496345	         -0.02597049	          0.82470712	         -0.19071551	          0.96832883	          0.16114237	         -0.80277263	         -0.24832399	          0.54211742	         -0.28892851	          0.96968415	          0.04593610	
          2.97000000	          0.56668560	         -0.02580977	          0.82352978	         -0.18954861	          0.96861671	          0.16078864	         -0.80183462	         -0.24721553	          0.54400893	         -0.28738074	          0.96760556	          0.04551367	
          2.98000000	          0.56852190	         -0.02565836	          0.82226790	         -0.18843047	          0.96888015	          0.16051547	         -0.80079761	         -0.24619688	          0.54599477	         -0.28593138	          0.96538468	          0.04510110	
          2.99000000	          0.57051098	         -0.02551249	          0.82089362	         -0.18736936	          0.96911522	          0.16033845	         -0.79963113	         -0.24528516	          0.54811062	         -0.28458899	          0.96297404	          0.04468888	
          3.00000000	          0.57269165	         -0.02536850	          0.81937825	         -0.18637390	          0.96931783	          0.16027386	         -0.79830386	         -0.24449822	          0.55039220	         -0.28336339	          0.96032558	          0.04426802	
          3.01000000	          0.57509956	         -0.02522304	          0.81769450	         -0.18545357	          0.96948371	          0.16033811	         -0.79678571	         -0.24385474	          0.55287195	         -0.28226617	          0.95739453	          0.04383047	
          3.02000000	          0.57776443	         -0.02507311	          0.81581837	         -0.18461912	          0.96960834	          0.16054733	         -0.79504971	         -0.24337421	          0.55557623	         -0.28131116	          0.95414289	          0.04336956	
          3.03000000	          0.58070809	         -0.02491611	          0.81373048	         -0.18388276	          0.96968699	          0.16091696	         -0.79307329	         -0.24307679	          0.55852344	         -0.28051443	          0.95054170	          0.04288013	
          3.04000000	          0.58394379	         -0.02474976	          0.81141673	         -0.18325806	          0.96971473	          0.16146156	         -0.79083888	         -0.24298313	          0.56172330	         -0.27989409	          0.94657201	          0.04235845	
          3.05000000	          0.58747651	         -0.02457196	          0.80886808	         -0.18275965	          0.96968644	          0.16219468	         -0.78833385	         -0.24311401	          0.56517724	         -0.27946964	          0.94222449	          0.04180192	
          3.06000000	          0.59130436	         -0.02438067	          0.80607986	         -0.18240264	          0.96959695	          0.16312888	         -0.78554976	         -0.24348991	          0.56887981	         -0.27926115	          0.93749788	          0.04120868	
          3.07000000	          0.59542071	         -0.02417372	          0.80305032	         -0.18220182	          0.96944106	          0.16427580	         -0.78248110	         -0.24413044	          0.57282078	         -0.27928830	          0.93239645	          0.04057711	
          3.08000000	          0.59981668	         -0.02394864	          0.79977897	         -0.18217086	          0.96921363	          0.16564636	         -0.77912369	         -0.24505388	          0.57698776	         -0.27956939	          0.92692693	          0.03990541	
          3.09000000	          0.60448378	         -0.02370258	          0.79626475	         -0.18232141	          0.96890972	          0.16725091	         -0.77547293	         -0.24627657	          0.58136872	         -0.28012044	          0.92109538	          0.03919121	
          3.10000000	          0.60941603	         -0.02343224	          0.79250428	         -0.18266225	          0.96852460	          0.16909940	         -0.77152227	         -0.24781250	          0.58595422	         -0.28095454	          0.91490439	          0.03843138	
          3.11000000	          0.61461130	         -0.02313386	          0.78849082	         -0.18319871	          0.96805386	          0.17120152	         -0.76726214	         -0.24967289	          0.59073874	         -0.28208141	          0.90835136	          0.03762207	
          3.12000000	          0.62007161	         -0.02280345	          0.78421374	         -0.18393226	          0.96749343	          0.17356665	         -0.76267956	         -0.25186596	          0.59572093	         -0.28350745	          0.90142796	          0.03675894	
          3.13000000	          0.62580229	         -0.02243692	          0.77965895	         -0.18486043	          0.96683959	          0.17620394	         -0.75775861	         -0.25439692	          0.60090273	         -0.28523617	          0.89412100	          0.03583770	
          3.14000000	          0.63181015	         -0.02203054	          0.77481003	         -0.18597708	          0.96608890	          0.17912219	         -0.75248153	         -0.25726813	          0.60628760	         -0.28726896	          0.88641455	          0.03485480	
          3.15000000	          0.63810120	         -0.02158131	          0.76964999	         -0.18727279	          0.96523819	          0.18232976	         -0.74683048	         -0.26047934	          0.61187805	         -0.28960606	          0.87829276	          0.03380825	
          3.16000000	          0.64467811	         -0.02108744	          0.76416324	         -0.18873538	          0.96428446	          0.18583445	         -0.74078950	         -0.26402804	          0.61767314	         -0.29224755	          0.86974307	          0.03269837	
          3.17000000	          0.65153811	         -0.02054879	          0.75833755	         -0.19035044	          0.96322485	          0.18964335	         -0.73434652	         -0.26790976	          0.62366622	         -0.29519413	          0.86075901	          0.03152845	
          3.18000000	          0.65867148	         -0.01996729	          0.75216567	         -0.19210186	          0.96205659	          0.19376274	         -0.72749485	         -0.27211841	          0.62984348	         -0.29844780	          0.85134236	          0.03030521	
          3.19000000	          0.66606102	         -0.01934716	          0.74564630	         -0.19397225	          0.96077692	          0.19819807	         -0.72023433	         -0.27664670	          0.63618324	         -0.30201225	          0.84150424	          0.02903896	
          3.20000000	          0.67368226	         -0.01869502	          0.73878462	         -0.19594347	          0.95938304	          0.20295403	         -0.71257166	         -0.28148655	          0.64265617	         -0.30589299	          0.83126518	          0.02774337	
